<svg width="1024" height="1024" viewBox="0 0 1024 1024" fill="none" xmlns="http://www.w3.org/2000/svg">
  <defs>
    <linearGradient id="bg" x1="140" y1="140" x2="884" y2="884" gradientUnits="userSpaceOnUse">
      <stop stop-color="#2B332E"/>
      <stop offset="1" stop-color="#111614"/>
    </linearGradient>
  </defs>
  <rect width="1024" height="1024" rx="240" fill="url(#bg)"/>
  <path d="M512 112C670.339 241.908 758 332.727 758 492.24C758 685.451 638.644 803.93 512 928C385.356 803.93 266 685.451 266 492.24C266 332.727 353.661 241.908 512 112Z" fill="#F0EEE0"/>
  <path d="M512 238C624.076 329.814 682 399.401 682 514.108C682 650.957 602.374 739.915 512 829C421.626 739.915 342 650.957 342 514.108C342 399.401 399.924 329.814 512 238Z" fill="#253027"/>
  <path d="M512 302L546.4 451.2L684 478.8L576.8 582L592 727L512 654L432 727L447.2 582L340 478.8L477.6 451.2L512 302Z" fill="#7BD07F"/>
  <path d="M512 382C567.361 436.58 596 485.423 596 536.24C596 607.108 549.226 658.681 512 693C474.774 658.681 428 607.108 428 536.24C428 485.423 456.639 436.58 512 382Z" fill="#FF8A34"/>
  <path d="M512 445C538.77 472.762 552 498.314 552 523.934C552 556.751 533.064 583.281 512 607C490.936 583.281 472 556.751 472 523.934C472 498.314 485.23 472.762 512 445Z" fill="#FFF4D9"/>
</svg>
